<svg width="142" height="132" viewBox="0 0 142 132" fill="none" xmlns="http://www.w3.org/2000/svg">
<path d="M37.6667 6.93333L39.6667 14L90.7334 14.4C118.733 14.5333 141.667 15.2 141.667 15.7333C141.667 16.2667 135.133 28.9333 127.267 44L113 71.3333L56.3334 72.6667L51 80.6667L131.667 82L132.867 85.7333C133.933 88.6667 133.667 89.8667 131.533 92C129 94.6667 127.267 94.6667 76.6 94.4L24.3334 94L33 82C37.8 75.4667 41.5334 69.4667 41.2667 68.6667C40.8667 68 37.2667 55.2 33 40.2667L25.2667 13.3333H15.8C5.13337 13.3333 0.333374 11.0667 0.333374 6.13334C0.333374 0.666668 2.60004 0 19.6667 0H35.6667L37.6667 6.93333ZM56.7334 106.667C65.1334 113.333 63.6667 126.133 54.2 130.133C47.9334 132.8 42.6 131.6 38.3334 126.4C33.4 120.533 33.8 114.267 39.5334 108.533C44.8667 103.2 51.4 102.4 56.7334 106.667ZM122.467 108.533C128.2 114.267 128.6 120.533 123.667 126.4C119.4 131.467 114.067 132.8 107.933 130.133C98.3334 126.133 96.4667 114.133 104.467 107.467C110.467 102.4 116.733 102.8 122.467 108.533Z" fill="white"/>
</svg>
