<svg width="18" height="12" viewBox="0 0 18 14" fill="none" xmlns="http://www.w3.org/2000/svg">
<circle cx="14.5" cy="12.5" r="1" fill="white" stroke="white"/>
<circle cx="6.5" cy="12.5" r="1" fill="white" stroke="white"/>
<path d="M4.5 10.5L5.5 10V8V5.5C5.5 3.5 4.95291 3.32276 4.5 2L3.5 1.5L0.5 1H4L4.5 2H17L16 4.5L14.5 8H5.5V10H15.5L16 10.5H4.5Z" fill="white"/>
<path d="M5.5 10L4.5 10.5H16L15.5 10H5.5ZM5.5 10V8M5.5 8H14.5L16 4.5L17 2H4.5M5.5 8V5.5C5.5 3.5 4.95291 3.32276 4.5 2M4.5 2L4 1H0.5L3.5 1.5L4.5 2Z" stroke="white" stroke-linejoin="round"/>
</svg>
