<svg width="75" height="38" viewBox="0 0 75 38" fill="none" xmlns="http://www.w3.org/2000/svg">
<path d="M0 0C24.75 0 49.5 0 75 0C68.25 7.875 68.25 7.875 65.4731 10.6404C64.853 11.2605 64.2328 11.8806 63.5938 12.5195C62.6231 13.4825 62.6231 13.4825 61.6328 14.4648C60.9532 15.143 60.2736 15.8212 59.5735 16.5199C57.4263 18.6615 55.2757 20.7995 53.125 22.9375C51.6586 24.3989 50.1925 25.8604 48.7266 27.3223C45.1537 30.8842 41.5777 34.4429 38 38C32.9431 33.7628 28.1916 29.3391 23.5352 24.668C22.857 23.9908 22.1788 23.3135 21.4801 22.6158C20.0613 21.1976 18.6437 19.7783 17.2273 18.3577C15.0479 16.1728 12.8631 13.9934 10.6777 11.8145C9.29655 10.4326 7.91568 9.05046 6.53516 7.66797C5.87903 7.01387 5.2229 6.35976 4.54689 5.68584C0 1.11498 0 1.11498 0 0Z" fill="#FAFAFA"/>
</svg>
