<svg width="134" height="135" viewBox="0 0 134 135" fill="none" xmlns="http://www.w3.org/2000/svg">
<path d="M99.375 2.5625C103.347 4.90105 106.622 8.04161 109 12C109.66 14.7227 109.66 14.7227 110 17C110.885 16.9764 110.885 16.9764 111.788 16.9524C114.463 16.89 117.137 16.851 119.812 16.8125C120.741 16.7874 121.67 16.7622 122.627 16.7363C123.52 16.7267 124.412 16.717 125.332 16.707C126.565 16.6835 126.565 16.6835 127.823 16.6594C130.529 17.0828 131.394 17.8115 133 20C133.312 23.0625 133.312 23.0625 133 26C131 28 131 28 128.845 28.2271C127.976 28.2166 127.107 28.2061 126.211 28.1953C125.27 28.1889 124.329 28.1824 123.359 28.1758C122.375 28.159 121.39 28.1423 120.375 28.125C119.382 28.116 118.39 28.107 117.367 28.0977C114.911 28.074 112.456 28.0411 110 28C109.888 28.9152 109.776 29.8305 109.66 30.7734C108.578 36.0609 105.47 39.1962 101.176 42.332C95.266 45.7245 89.422 45.8924 82.832 44.5625C75.982 42.4426 71.614 37.7595 68.0625 31.6875C66.0785 24.8019 66.0936 19.2587 69.125 12.6875C75.2111 1.7359 87.628 -2.7112 99.375 2.5625Z" fill="#5BD894"/>
<path d="M101.211 92.6641C106.108 96.3211 109.088 99.8892 110 106C110.885 105.976 110.885 105.976 111.788 105.952C114.463 105.89 117.137 105.851 119.812 105.812C120.741 105.787 121.67 105.762 122.627 105.736C123.52 105.727 124.412 105.717 125.332 105.707C126.565 105.683 126.565 105.683 127.823 105.659C130.529 106.083 131.394 106.812 133 109C133.312 112.062 133.312 112.062 133 115C131 117 131 117 128.845 117.227C127.976 117.217 127.107 117.206 126.211 117.195C125.27 117.189 124.329 117.182 123.359 117.176C122.375 117.159 121.39 117.142 120.375 117.125C119.382 117.116 118.39 117.107 117.367 117.098C114.911 117.074 112.456 117.041 110 117C109.852 117.787 109.705 118.574 109.552 119.385C108.505 124.343 105.902 127.676 101.762 130.559C95.3131 134.099 90.0799 135.071 82.9062 133.559C75.9886 131.443 71.5984 126.784 68.0625 120.625C65.9056 113.266 66.5793 107.319 69.668 100.301C72.3632 95.6453 76.005 92.9975 80.75 90.625C87.9142 89.2473 94.7441 88.9117 101.211 92.6641Z" fill="#5BD894"/>
<path d="M55.5976 47.6055C60.8908 50.6781 64.1352 54.8944 66.4375 60.5C67.8203 69.1043 67.07 74.7346 62 82C55.5946 88.1686 50.0788 89.4219 41.3008 89.3438C35.0679 88.6946 31.1857 85.5086 27.0625 81C25.046 78.0669 24.5488 76.4198 24 73C23.4151 73.021 22.8302 73.0419 22.2275 73.0635C19.5685 73.1468 16.9098 73.1987 14.25 73.25C12.8694 73.3003 12.8694 73.3003 11.4609 73.3516C4.64417 73.4504 4.64417 73.4504 1.35155 71.1484C-1.21593e-05 69 -1.22041e-05 69 0.124988 66.375C0.999988 64 0.999988 64 2.99999 62C5.15477 61.7729 5.15477 61.7729 7.78905 61.8047C8.73007 61.8111 9.67108 61.8176 10.6406 61.8242C11.6255 61.841 12.6103 61.8577 13.625 61.875C14.6176 61.884 15.6101 61.893 16.6328 61.9023C19.0888 61.926 21.5443 61.9589 24 62C24.1372 61.2183 24.2744 60.4365 24.4158 59.6311C25.5683 54.4404 29.7306 50.623 33.9609 47.5977C41.3872 43.4736 48.0377 44.3089 55.5976 47.6055Z" fill="#5BD995"/>
<path d="M9.114 105.773C10.1549 105.773 11.1957 105.773 12.2681 105.773C13.3901 105.784 14.512 105.794 15.668 105.805C16.8179 105.808 17.9679 105.81 19.1527 105.813C22.831 105.824 26.5092 105.85 30.1875 105.875C32.679 105.885 35.1706 105.894 37.6621 105.902C43.7748 105.924 49.8874 105.959 56 106C56 109.63 56 113.26 56 117C48.4886 117.049 40.9773 117.086 33.4658 117.11C30.9088 117.12 28.3519 117.134 25.7949 117.151C22.1263 117.175 18.4578 117.186 14.7891 117.195C13.0656 117.211 13.0656 117.211 11.3073 117.227C10.2463 117.227 9.18537 117.227 8.09227 117.227C7.15518 117.231 6.21808 117.236 5.25258 117.241C2.99999 117 2.99999 117 0.999989 115C0.687489 111.5 0.687489 111.5 0.999989 108C4.30522 105.797 5.2766 105.754 9.114 105.773Z" fill="#5AD693"/>
<path d="M78 62C85.5114 61.9507 93.0227 61.9143 100.534 61.8901C103.091 61.8801 105.648 61.8664 108.205 61.8491C111.874 61.8249 115.542 61.8135 119.211 61.8047C120.934 61.7892 120.934 61.7892 122.693 61.7734C124.284 61.7732 124.284 61.7732 125.908 61.7729C126.845 61.7685 127.782 61.7641 128.747 61.7595C131 62 131 62 133 64C133.312 67.5 133.312 67.5 133 71C129.695 73.2035 128.723 73.2456 124.886 73.2271C123.845 73.2269 122.804 73.2267 121.732 73.2266C120.61 73.2163 119.488 73.2059 118.332 73.1953C116.607 73.1911 116.607 73.1911 114.847 73.1867C111.169 73.1755 107.491 73.1504 103.812 73.125C101.321 73.115 98.8294 73.1058 96.3379 73.0977C90.2252 73.0756 84.1126 73.0411 78 73C78 69.37 78 65.74 78 62Z" fill="#5BD995"/>
<path d="M9.114 16.6594C10.6753 16.6598 10.6753 16.6598 12.2681 16.6601C13.951 16.6833 13.951 16.6833 15.668 16.707C16.8179 16.7113 17.9679 16.7155 19.1527 16.7199C22.8312 16.7367 26.5091 16.7744 30.1875 16.8125C32.679 16.8275 35.1706 16.8412 37.6621 16.8535C43.7749 16.8866 49.8874 16.9384 56 17C56 20.63 56 24.26 56 28C48.4886 28.0493 40.9773 28.0857 33.4658 28.1099C30.9088 28.1199 28.3519 28.1336 25.7949 28.1509C22.1263 28.1751 18.4578 28.1865 14.7891 28.1953C13.0656 28.2108 13.0656 28.2108 11.3073 28.2266C10.2463 28.2267 9.18537 28.2269 8.09227 28.2271C7.15518 28.2315 6.21808 28.2359 5.25258 28.2405C2.99999 28 2.99999 28 0.999989 26C0.444015 20.7738 0.444015 20.7738 2.19989 18.3299C4.6134 16.5468 6.12857 16.6377 9.114 16.6594Z" fill="#5AD492"/>
</svg>
