<svg width="191" height="189" viewBox="0 0 191 189" fill="none" xmlns="http://www.w3.org/2000/svg">
<path d="M164.333 9.33335C155.267 14.4 141.8 21.0667 134.6 24.1334C113.133 33.2 84.7334 51.4667 73.8 63.2C70.7334 66.5333 70.6 67.2 71.9334 73.4667C73.4 81.2 72.4667 82.2667 66.4667 80C61 78 59.1334 78.2667 55.4 82.2667C42.4667 96.2667 27.4 127.467 22.4667 150.8C22.0667 152.667 16.6 160.4 10.3334 167.867C0.866687 179.333 -0.733313 182 0.333354 184.133C2.73335 188.533 6.73335 189.867 10.4667 187.333C17.6667 182.667 32.6 167.2 42.4667 154.267C61.6667 129.067 110.333 73.0667 114.333 71.4667C115.533 71.0667 116.733 71.6 117.133 72.6667C117.667 73.8667 111.933 81.2 101.4 92.6667C92.4667 102.667 82.6 113.733 79.6667 117.2C49 153.867 46.6 157.067 47.5334 159.6C48.7334 162.533 63.4 161.2 75.9334 156.8C88.0667 152.667 107 142.933 108.067 140.267C108.733 138.533 107.933 134.933 104.733 123.733C104.067 121.6 104.6 121.6 111.667 124C115.933 125.467 120.733 126.667 122.467 126.667C125.667 126.667 133.133 119.467 140.6 109.333L144.733 103.733L140.6 95.2C138.2 90.4 136.333 86.2667 136.333 85.7333C136.333 85.3333 139.8 85.3333 144.2 85.7333C149.4 86.2667 152.6 86 154.067 84.9333C156.467 83.2 159 76.9333 168.333 50.6667C175.4 30.4 178.333 24.1333 186.067 12.8C190.067 6.80002 191.133 4.40002 190.067 2.80002C187.267 -1.59998 181.4 -0.133316 164.333 9.33335Z" fill="#5CDB96"/>
</svg>
