<svg width="124" height="177" viewBox="0 0 124 177" fill="none" xmlns="http://www.w3.org/2000/svg">
<path d="M107.304 3.70137C114.77 6.50137 123.837 14.368 123.837 18.1014C123.837 21.7014 121.037 24.2347 114.504 26.6347C111.17 27.8347 105.304 31.3014 101.304 34.368L94.1037 39.8347L85.9703 36.1014C73.837 30.5014 74.237 31.3014 75.7037 16.9014C77.437 0.634701 79.037 -0.965298 91.7037 0.368036C96.5037 0.768036 103.57 2.36803 107.304 3.70137ZM67.5703 16.9014C68.1037 30.5014 67.437 32.9014 62.637 32.9014C60.3703 32.9014 56.9037 31.4347 54.3703 29.3014C49.7037 25.3014 44.5037 15.0347 45.9703 12.768C47.5703 9.96804 57.837 6.2347 62.5037 6.50137L67.1703 6.90137L67.5703 16.9014ZM46.637 38.9014C51.3037 41.968 51.837 42.768 51.837 47.968C51.837 53.3014 51.3037 54.1014 44.3703 59.968C36.5037 66.5014 35.037 66.9014 32.637 63.168C31.5703 61.4347 32.237 59.968 36.1037 55.968C38.9037 53.168 40.637 50.2347 40.1037 49.4347C38.9037 47.568 32.237 44.2347 27.5703 43.0347C21.837 41.7014 20.7703 32.5014 26.237 31.168C29.3037 30.5014 40.237 34.6347 46.637 38.9014ZM85.1703 43.968C90.1037 46.5014 91.3037 47.8347 91.5703 51.168C92.1037 56.2347 89.3037 57.568 82.5037 55.568C79.9703 54.768 74.5037 54.2347 70.5037 54.2347C66.3703 54.2347 62.3703 53.568 61.437 52.6347C59.3037 50.5014 59.437 43.3014 61.5703 41.0347C63.9703 38.5014 77.837 40.2347 85.1703 43.968ZM84.9037 63.568C93.7037 67.568 99.1703 72.368 105.704 81.968C116.637 98.1014 122.504 119.168 122.504 142.635C122.504 159.835 119.304 167.835 110.237 173.035C104.504 176.235 104.104 176.235 65.1703 176.635C31.037 177.035 25.1703 176.768 20.1037 174.768C6.23699 169.568 -0.963007 157.568 0.10366 141.568C1.03699 126.901 4.37033 121.168 21.7037 104.235C32.5037 93.7014 37.9703 87.168 41.1703 81.168C45.7037 72.6347 52.1037 66.368 60.1037 62.9014C66.3703 60.2347 78.1037 60.5014 84.9037 63.568Z" fill="#5CDB96"/>
</svg>
