<svg width="143" height="143" viewBox="0 0 143 143" fill="none" xmlns="http://www.w3.org/2000/svg">
<path d="M117 129.2C131.8 143.867 134.2 144.933 139.8 139.2C145 134.134 143.267 130.4 128.867 115.866L116.067 103.066L120.2 95.8662C127.933 82.1329 130.467 63.3331 126.467 48.5332C120.201 24.9333 99.5334 5.73353 75.8002 1.4668C66.867 -0.133176 60.7335 -0.266905 53.0004 1.33301C11.2672 9.99964 -11.2667 53.5997 6.46619 91.5996C22.0662 124.8 63.8002 138.133 95.8002 120L103.267 115.866L117 129.2ZM106.6 83.0664C91.5334 115.733 46.7339 120 26.7338 90.667C19.5338 80.1338 16.6 67.7335 18.8666 56.9336C22.5999 38.9336 34.0668 25.5999 50.0668 20.5332C58.8668 17.8666 72.467 18.2663 81.267 21.5996C91.6669 25.333 103.933 37.7334 107.666 48C111.666 58.9333 111.267 73.0664 106.6 83.0664Z" fill="white"/>
</svg>
