<svg width="163" height="162" viewBox="0 0 163 162" fill="none" xmlns="http://www.w3.org/2000/svg">
<path d="M158.4 24.3335L160.001 14.7329C160.801 9.39972 161.867 4.0662 162.133 2.7329C163.066 -0.600089 161.599 -0.732905 148.933 1.53368L137.2 3.66649L49.4663 95.6665L52.6665 98.9995L56.0005 102.2L76.1333 82.3335C89.0662 69.534 96.5331 63.0004 97.0669 64.1997C97.3336 65.2664 89.7333 73.9337 78.1333 85.5337L58.5337 105.133L62.3999 108.733L66.1333 112.333L158.4 24.3335ZM74.6665 123.666L37.8667 86.8667L31.4663 93.8003L68.0005 130.333L74.6665 123.666ZM40.2671 118.2C44.6671 119.266 50.6665 119.133 50.6665 117.933C50.6663 117.266 49.3333 115.533 47.6001 113.933C43.7336 110.333 43.7332 110.333 40.1333 114.2L37.1997 117.267L40.2671 118.2ZM31.4663 130.333C36.7997 131.133 38.1333 130.733 40.3999 128.466C41.9993 127 42.9326 125.535 42.5337 125.267C42.2671 125 39.6003 124.333 36.5337 123.933C31.8671 123.133 30.6666 123.533 28.1333 126.2L25.1997 129.4L31.4663 130.333ZM4.00052 157.933C7.6004 161.4 8.80031 161.934 13.0669 161.267C19.0668 160.2 22.6665 156.2 22.6665 150.466C22.6666 147.267 23.8668 145 27.4663 141.534L32.1333 137L28.3999 136.2C22.0004 134.733 19.0669 134.867 17.3335 137C16.4002 138.066 13.9995 139 11.9995 139C6.4001 139 4.13372 140.2 2.00052 144.466C-0.932815 150.066 -0.399482 153.4 4.00052 157.933ZM17.9995 151.8C16.5326 156.067 10.6663 157.8 7.19974 154.867C4.53326 152.733 4.7998 146.066 7.73294 144.466C11.0663 142.466 12.6667 142.734 16.1333 145.534C18.7998 147.667 19.0662 148.6 17.9995 151.8Z" fill="white"/>
</svg>
