<svg width="143" height="121" viewBox="0 0 143 121" fill="none" xmlns="http://www.w3.org/2000/svg">
<path d="M66.3333 0.799988C58.0667 2.26665 54.2 4.13333 48.3333 9.46666C39.6667 17.3333 37 23.4667 37 36C37 45.2 37.5333 47.4667 40.6 52.9333C48.0667 65.4667 60.8667 72.2667 75 70.9333C84.6 70.1333 91.9333 66.2667 98.6 58.8C104.733 51.8667 107 45.3333 107 34.8C107 13.3333 87.5333 -2.93335 66.3333 0.799988Z" fill="#303141"/>
<path d="M25.6667 66.4C15.8 74.1333 11.2667 79.7333 6.86666 89.4667C3.39999 97.2 -0.333341 117.067 1.13333 119.6C1.53333 120.133 33.5333 120.667 72.4667 120.667H143V117.067C143 110.133 139.933 95.8667 136.867 88.9333C133.533 81.3333 123.4 69.7333 114.867 63.8667L109.533 60.2667L103.267 66.2667C92.7333 76.5333 87.2667 78.6667 71.6667 78.6667C59.4 78.6667 57.8 78.4 51.2667 74.8C47.4 72.5333 42.0667 68.5333 39.5333 65.7333C37.1333 62.9333 34.6 60.6667 34.0667 60.6667C33.4 60.6667 29.6667 63.3333 25.6667 66.4Z" fill="#303141"/>
</svg>
