<svg width="15" height="14" viewBox="0 0 15 14" fill="none" xmlns="http://www.w3.org/2000/svg">
<path d="M11 4.5C11 6.433 9.433 8 7.5 8C5.567 8 4 6.433 4 4.5C4 2.567 5.567 1 7.5 1C9.433 1 11 2.567 11 4.5Z" fill="#303141"/>
<path d="M1 13C1.26962 10.8133 1.98741 9.73024 3.5 8C3.5 8 4.57143 8.90909 5.5 9.36364C6.42857 9.81818 7.5 9.81818 7.5 9.81818C7.5 9.81818 8.42857 9.81818 9.35714 9.36364C10.2857 8.90909 11.2143 8 11.2143 8C12.8708 9.81714 13.5065 10.9057 14 13H1Z" fill="#303141"/>
<path d="M3.5 8L3.82349 7.61875C3.61512 7.44195 3.30342 7.46518 3.12356 7.67092L3.5 8ZM1 13L0.503758 12.9388C0.486225 13.081 0.530531 13.2239 0.625437 13.3312C0.720343 13.4385 0.85673 13.5 1 13.5V13ZM14 13V13.5C14.1528 13.5 14.2972 13.4302 14.392 13.3104C14.4868 13.1906 14.5217 13.034 14.4867 12.8853L14 13ZM11.2143 8L11.5838 7.66316C11.4924 7.56287 11.3641 7.50406 11.2285 7.5002C11.0928 7.49635 10.9615 7.54779 10.8645 7.64272L11.2143 8ZM9.35714 9.36364L9.13731 8.91455L9.13731 8.91455L9.35714 9.36364ZM5.5 9.36364L5.71983 8.91455L5.71983 8.91455L5.5 9.36364ZM7.5 9.81818L7.5 10.3182L7.5 10.3182L7.5 9.81818ZM11 4.5H10.5C10.5 6.15685 9.15685 7.5 7.5 7.5V8V8.5C9.70914 8.5 11.5 6.70914 11.5 4.5H11ZM7.5 8V7.5C5.84315 7.5 4.5 6.15685 4.5 4.5H4H3.5C3.5 6.70914 5.29086 8.5 7.5 8.5V8ZM4 4.5H4.5C4.5 2.84315 5.84315 1.5 7.5 1.5V1V0.5C5.29086 0.5 3.5 2.29086 3.5 4.5H4ZM7.5 1V1.5C9.15685 1.5 10.5 2.84315 10.5 4.5H11H11.5C11.5 2.29086 9.70914 0.5 7.5 0.5V1ZM3.5 8L3.12356 7.67092C2.36307 8.54084 1.77281 9.28046 1.34191 10.0951C0.90602 10.9191 0.644507 11.7973 0.503758 12.9388L1 13L1.49624 13.0612C1.62512 12.016 1.85731 11.2594 2.22586 10.5626C2.59941 9.85645 3.12434 9.1894 3.87644 8.32908L3.5 8ZM1 13V13.5H14V13V12.5H1V13ZM14 13L14.4867 12.8853C14.2329 11.8083 13.9365 10.965 13.4792 10.1511C13.0243 9.3417 12.4222 8.58282 11.5838 7.66316L11.2143 8L10.8448 8.33684C11.6629 9.23432 12.2069 9.92829 12.6074 10.641C13.0054 11.3492 13.2736 12.0974 13.5133 13.1147L14 13ZM11.2143 8C10.8645 7.64272 10.8645 7.64268 10.8646 7.64264C10.8646 7.64264 10.8646 7.6426 10.8646 7.64259C10.8647 7.64256 10.8647 7.64254 10.8647 7.64254C10.8647 7.64254 10.8646 7.64259 10.8645 7.64269C10.8643 7.6429 10.8639 7.64332 10.8632 7.64395C10.8619 7.64521 10.8598 7.64731 10.8568 7.65021C10.8507 7.656 10.8414 7.66497 10.8289 7.6768C10.8039 7.70045 10.7664 7.73545 10.7184 7.77918C10.622 7.86677 10.4837 7.9886 10.3179 8.12394C9.98095 8.3988 9.55109 8.71201 9.13731 8.91455L9.35714 9.36364L9.57697 9.81272C10.0918 9.56072 10.5905 9.19211 10.95 8.89878C11.1323 8.75003 11.2842 8.61619 11.391 8.51912C11.4445 8.47051 11.4868 8.43094 11.5163 8.4031C11.531 8.38918 11.5425 8.37818 11.5505 8.37043C11.5545 8.36656 11.5577 8.3635 11.56 8.36129C11.5611 8.36019 11.562 8.3593 11.5627 8.35863C11.563 8.3583 11.5633 8.35802 11.5636 8.35779C11.5637 8.35768 11.5638 8.35758 11.5639 8.35749C11.5639 8.35745 11.564 8.3574 11.564 8.35738C11.564 8.35733 11.5641 8.35728 11.2143 8ZM5.5 9.36364L5.71983 8.91455C5.29667 8.70741 4.82552 8.3879 4.4492 8.10943C4.2636 7.9721 4.10597 7.84843 3.99502 7.75932C3.93962 7.71482 3.89603 7.67908 3.86663 7.65475C3.85193 7.64258 3.84079 7.63328 3.8335 7.62717C3.82985 7.62411 3.82717 7.62185 3.82549 7.62044C3.82465 7.61973 3.82406 7.61923 3.82372 7.61894C3.82356 7.6188 3.82345 7.61871 3.82341 7.61868C3.82339 7.61866 3.82339 7.61866 3.8234 7.61867C3.82341 7.61868 3.82343 7.6187 3.82343 7.6187C3.82346 7.61872 3.82349 7.61875 3.5 8C3.17651 8.38125 3.17655 8.38129 3.17659 8.38132C3.17661 8.38134 3.17666 8.38138 3.1767 8.38141C3.17677 8.38148 3.17687 8.38156 3.17698 8.38165C3.1772 8.38184 3.17749 8.38208 3.17784 8.38238C3.17854 8.38297 3.1795 8.38378 3.18071 8.38481C3.18314 8.38686 3.18659 8.38976 3.19102 8.39347C3.19988 8.4009 3.21266 8.41157 3.22907 8.42515C3.26189 8.45231 3.30927 8.49115 3.36882 8.53898C3.48778 8.63453 3.65604 8.76654 3.85438 8.91329C4.24591 9.20301 4.77476 9.56532 5.28017 9.81272L5.5 9.36364ZM9.35714 9.36364L9.13731 8.91455C8.72978 9.11405 8.31603 9.2163 7.99984 9.26789C7.84295 9.29349 7.71326 9.30611 7.62472 9.3123C7.58053 9.31539 7.54684 9.31686 7.5254 9.31756C7.5147 9.31791 7.50707 9.31807 7.50276 9.31813C7.5006 9.31817 7.49928 9.31818 7.49881 9.31818C7.49857 9.31819 7.49855 9.31818 7.49875 9.31818C7.49885 9.31818 7.499 9.31818 7.49921 9.31818C7.49931 9.31818 7.49943 9.31818 7.49956 9.31818C7.49963 9.31818 7.49974 9.31818 7.49977 9.31818C7.49988 9.31818 7.5 9.31818 7.5 9.81818C7.5 10.3182 7.50012 10.3182 7.50025 10.3182C7.5003 10.3182 7.50043 10.3182 7.50052 10.3182C7.50071 10.3182 7.50091 10.3182 7.50113 10.3182C7.50156 10.3182 7.50206 10.3182 7.5026 10.3182C7.5037 10.3182 7.50503 10.3182 7.50658 10.3182C7.50968 10.3181 7.51368 10.3181 7.51855 10.318C7.52829 10.3179 7.54153 10.3176 7.55802 10.317C7.591 10.316 7.63711 10.3139 7.69448 10.3099C7.80906 10.3018 7.96955 10.2861 8.16088 10.2548C8.54111 10.1928 9.05594 10.0678 9.57697 9.81272L9.35714 9.36364ZM7.5 9.81818C7.5 9.31818 7.5001 9.31818 7.5002 9.31818C7.50022 9.31818 7.50031 9.31818 7.50037 9.31818C7.50047 9.31818 7.50056 9.31818 7.50064 9.31818C7.50079 9.31818 7.50087 9.31818 7.50089 9.31818C7.50094 9.31818 7.50073 9.31818 7.50027 9.31818C7.49936 9.31817 7.49746 9.31816 7.49461 9.31812C7.48891 9.31804 7.47941 9.31787 7.46641 9.3175C7.44039 9.31676 7.40045 9.31522 7.34891 9.31203C7.2456 9.30565 7.09702 9.29274 6.92141 9.26675C6.56555 9.21409 6.1209 9.11088 5.71983 8.91455L5.5 9.36364L5.28017 9.81272C5.80768 10.0709 6.36302 10.195 6.77502 10.256C6.98334 10.2868 7.16065 10.3023 7.28725 10.3101C7.35066 10.314 7.40169 10.3161 7.43789 10.3171C7.45599 10.3176 7.47042 10.3179 7.48087 10.318C7.48609 10.3181 7.49032 10.3181 7.49352 10.3182C7.49512 10.3182 7.49647 10.3182 7.49755 10.3182C7.49809 10.3182 7.49856 10.3182 7.49897 10.3182C7.49918 10.3182 7.49936 10.3182 7.49954 10.3182C7.49962 10.3182 7.49974 10.3182 7.49978 10.3182C7.49989 10.3182 7.5 10.3182 7.5 9.81818Z" fill="#303141"/>
</svg>
