<svg width="182" height="135" viewBox="0 0 182 135" fill="none" xmlns="http://www.w3.org/2000/svg">
<rect x="3.5" y="3.5" width="175" height="128" rx="64" stroke="#5CDB96" stroke-width="7"/>
<path d="M57.3776 42.6829C57.2031 42.0705 56.9579 41.5294 56.6421 41.0596C56.3263 40.5814 55.9399 40.1787 55.4828 39.8515C55.034 39.5159 54.5187 39.2601 53.937 39.0839C53.3636 38.9077 52.7278 38.8196 52.0297 38.8196C50.7249 38.8196 49.578 39.1468 48.5891 39.8012C47.6084 40.4555 46.8438 41.4077 46.2953 42.6577C45.7468 43.8993 45.4726 45.4178 45.4726 47.2131C45.4726 49.0084 45.7427 50.5352 46.2829 51.7936C46.8231 53.052 47.5876 54.0126 48.5766 54.6753C49.5656 55.3297 50.7332 55.6569 52.0796 55.6569C53.3012 55.6569 54.3442 55.4388 55.2085 55.0025C56.0812 54.5579 56.746 53.9329 57.2031 53.1275C57.6685 52.3221 57.9012 51.37 57.9012 50.271L58.9982 50.4346H52.4161V46.3322H63.0995V49.5789C63.0995 51.844 62.6258 53.7903 61.6784 55.4178C60.731 57.0369 59.4262 58.2869 57.7641 59.1678C56.1019 60.0403 54.1988 60.4765 52.0546 60.4765C49.6612 60.4765 47.5586 59.9438 45.7468 58.8784C43.9351 57.8045 42.5223 56.2819 41.5084 54.3104C40.5028 52.3305 40 49.9815 40 47.2634C40 45.1745 40.2992 43.3121 40.8976 41.6762C41.5042 40.0319 42.3519 38.6393 43.4406 37.4983C44.5293 36.3574 45.7967 35.4891 47.2428 34.8935C48.6888 34.2978 50.2554 34 51.9424 34C53.3885 34 54.7348 34.2139 55.9814 34.6418C57.228 35.0612 58.3333 35.6569 59.2974 36.4287C60.2697 37.2005 61.0634 38.1191 61.6784 39.1846C62.2934 40.2416 62.6881 41.4077 62.8627 42.6829H57.3776Z" fill="#5CDB96"/>
<path d="M70.7661 60.1242H64.9819L73.7953 34.3523H80.7514L89.5524 60.1242H83.7682L77.3731 40.2416H77.1736L70.7661 60.1242ZM70.4046 49.9941H84.0673V54.2475H70.4046V49.9941Z" fill="#5CDB96"/>
<path d="M92.6253 34.3523H99.2821L106.313 51.6678H106.612L113.643 34.3523H120.3V60.1242H115.064V43.3498H114.852L108.245 59.9983H104.68L98.0729 43.2869H97.861V60.1242H92.6253V34.3523Z" fill="#5CDB96"/>
<path d="M124.747 60.1242V34.3523H141.95V38.8448H130.145V44.9857H141.065V49.4782H130.145V55.6317H142V60.1242H124.747Z" fill="#5CDB96"/>
<path d="M43.0713 102.648V76.8758H48.4691V98.1552H59.4143V102.648H43.0713Z" fill="#5CDB96"/>
<path d="M85.4557 89.7617C85.4557 92.5721 84.928 94.9631 83.8726 96.9346C82.8254 98.906 81.396 100.412 79.5843 101.452C77.7808 102.484 75.753 103 73.5008 103C71.232 103 69.1959 102.48 67.3925 101.44C65.5891 100.399 64.1638 98.8935 63.1167 96.922C62.0695 94.9505 61.5459 92.5638 61.5459 89.7617C61.5459 86.9513 62.0695 84.5604 63.1167 82.5889C64.1638 80.6175 65.5891 79.1158 67.3925 78.0839C69.1959 77.0436 71.232 76.5235 73.5008 76.5235C75.753 76.5235 77.7808 77.0436 79.5843 78.0839C81.396 79.1158 82.8254 80.6175 83.8726 82.5889C84.928 84.5604 85.4557 86.9513 85.4557 89.7617ZM79.9832 89.7617C79.9832 87.9413 79.7131 86.406 79.1729 85.156C78.641 83.906 77.8889 82.9581 76.9165 82.3121C75.9442 81.6661 74.8056 81.3431 73.5008 81.3431C72.1961 81.3431 71.0575 81.6661 70.0852 82.3121C69.1128 82.9581 68.3565 83.906 67.8163 85.156C67.2845 86.406 67.0185 87.9413 67.0185 89.7617C67.0185 91.5822 67.2845 93.1175 67.8163 94.3675C68.3565 95.6175 69.1128 96.5654 70.0852 97.2114C71.0575 97.8574 72.1961 98.1804 73.5008 98.1804C74.8056 98.1804 75.9442 97.8574 76.9165 97.2114C77.8889 96.5654 78.641 95.6175 79.1729 94.3675C79.7131 93.1175 79.9832 91.5822 79.9832 89.7617Z" fill="#5CDB96"/>
<path d="M106.383 85.2064C106.209 84.594 105.963 84.0529 105.648 83.5831C105.332 83.1049 104.945 82.7022 104.488 82.375C104.039 82.0394 103.524 81.7836 102.942 81.6074C102.369 81.4312 101.733 81.3431 101.035 81.3431C99.7304 81.3431 98.5835 81.6703 97.5945 82.3247C96.6139 82.979 95.8493 83.9312 95.3008 85.1812C94.7523 86.4228 94.478 87.9413 94.478 89.7366C94.478 91.5319 94.7481 93.0587 95.2883 94.3171C95.8285 95.5755 96.5931 96.5361 97.582 97.1988C98.571 97.8532 99.7387 98.1804 101.085 98.1804C102.307 98.1804 103.35 97.9623 104.214 97.526C105.087 97.0814 105.751 96.4564 106.209 95.651C106.674 94.8456 106.907 93.8935 106.907 92.7945L108.004 92.9581H101.422V88.8557H112.105V92.1023C112.105 94.3674 111.631 96.3138 110.684 97.9413C109.736 99.5604 108.432 100.81 106.77 101.691C105.107 102.564 103.204 103 101.06 103C98.6666 103 96.564 102.467 94.7523 101.402C92.9405 100.328 91.5277 98.8054 90.5138 96.8339C89.5082 94.854 89.0054 92.505 89.0054 89.7869C89.0054 87.698 89.3046 85.8356 89.903 84.1997C90.5097 82.5554 91.3574 81.1628 92.4461 80.0218C93.5348 78.8809 94.8021 78.0126 96.2482 77.4169C97.6942 76.8213 99.2608 76.5235 100.948 76.5235C102.394 76.5235 103.74 76.7374 104.987 77.1653C106.233 77.5847 107.339 78.1804 108.303 78.9522C109.275 79.724 110.069 80.6426 110.684 81.7081C111.299 82.7651 111.694 83.9312 111.868 85.2064H106.383Z" fill="#5CDB96"/>
<path d="M139.621 89.7617C139.621 92.5721 139.093 94.9631 138.037 96.9346C136.99 98.906 135.561 100.412 133.749 101.452C131.946 102.484 129.918 103 127.666 103C125.397 103 123.361 102.48 121.557 101.44C119.754 100.399 118.329 98.8935 117.281 96.922C116.234 94.9505 115.711 92.5638 115.711 89.7617C115.711 86.9513 116.234 84.5604 117.281 82.5889C118.329 80.6175 119.754 79.1158 121.557 78.0839C123.361 77.0436 125.397 76.5235 127.666 76.5235C129.918 76.5235 131.946 77.0436 133.749 78.0839C135.561 79.1158 136.99 80.6175 138.037 82.5889C139.093 84.5604 139.621 86.9513 139.621 89.7617ZM134.148 89.7617C134.148 87.9413 133.878 86.406 133.338 85.156C132.806 83.906 132.054 82.9581 131.081 82.3121C130.109 81.6661 128.97 81.3431 127.666 81.3431C126.361 81.3431 125.222 81.6661 124.25 82.3121C123.278 82.9581 122.521 83.906 121.981 85.156C121.449 86.406 121.183 87.9413 121.183 89.7617C121.183 91.5822 121.449 93.1175 121.981 94.3675C122.521 95.6175 123.278 96.5654 124.25 97.2114C125.222 97.8574 126.361 98.1804 127.666 98.1804C128.97 98.1804 130.109 97.8574 131.081 97.2114C132.054 96.5654 132.806 95.6175 133.338 94.3675C133.878 93.1175 134.148 91.5822 134.148 89.7617Z" fill="#5CDB96"/>
</svg>
